# xmcd
#
# Track frame offsets:
#	150
#	18483
#	34093
#	51541
#	64102
#	82195
#	96129
#	117496
#	136153
#	151965
#	175949
#	190161
#	208143
#
# Disc length: 3069 seconds
#
# Revision: 0
# Processed by: cddbd v1.5.2PL0 Copyright (c) Steve Scherf et al.
# Submitted via: dBpowerAMP V4.0
#
DISCID=b90bfb0d
DTITLE=Nathan Carter - Livin' The Dream
DYEAR=1900
DGENRE=Country
TTITLE0=Livin' The Dream
TTITLE1=Caribbean Feeling
TTITLE2=Beeswing
TTITLE3=Holdin' A Good Hand
TTITLE4=Just Hasn't Happened To Me
TTITLE5=Summer's Here
TTITLE6=Riding With Private Malone
TTITLE7=Jealous Of The Angels
TTITLE8=Me And You
TTITLE9=Ned Of The Hill
TTITLE10=Stay Alive
TTITLE11=Rollin' Home
TTITLE12=Summer In Dublin
EXTD=
EXTT0=
EXTT1=
EXTT2=
EXTT3=
EXTT4=
EXTT5=
EXTT6=
EXTT7=
EXTT8=
EXTT9=
EXTT10=
EXTT11=
EXTT12=
PLAYORDER=
